<?xml version="1.0" standalone="no"?>
<!DOCTYPE svg PUBLIC "-//W3C//DTD SVG 20010904//EN"
 "http://www.w3.org/TR/2001/REC-SVG-20010904/DTD/svg10.dtd">
<svg version="1.0" xmlns="http://www.w3.org/2000/svg"
 width="30.000000pt" height="30.000000pt" viewBox="0 0 604.000000 220.000000"
 preserveAspectRatio="xMidYMid meet">

<g transform="translate(0.000000,0.000000) scale(0.100000,-0.100000)"
fill="#f0f0f0" stroke="none">
<path d="M5070 2110 c-11 -11 -20 -28 -20 -37 0 -10 169 -187 375 -393 206
-207 375 -383 375 -393 0 -16 -151 -17 -2645 -17 -2632 0 -2645 0 -2665 -20
-24 -24 -26 -53 -4 -74 14 -14 269 -16 2660 -16 2409 0 2645 -1 2651 -16 4
-11 -100 -122 -371 -393 -261 -261 -376 -383 -376 -398 0 -30 28 -55 56 -51
33 4 914 884 914 913 0 25 -887 915 -913 915 -9 0 -26 -9 -37 -20z"/>
</g>
</svg>
